# xmcd
#
# Track frame offsets:
#	150
#	10978
#	23507
#	36979
#	46527
#	59494
#	67619
#	82580
#	93212
#	104630
#	115066
#	126005
#	137752
#	148031
#	158053
#	168992
#	179843
#	188458
#	196884
#	210119
#	220845
#	230646
#	241797
#	252289
#	261444
#	269717
#	279643
#	288821
#	302613
#	315688
#
# Disc length: 4328 seconds
#
# Revision: 3
# Processed by: cddbd v1.5.2PL0 Copyright (c) Steve Scherf et al.
# Submitted via: audiograbber 1.83.01
#
DISCID=9d10e61e
DTITLE=Various Artist - Juke Box Jamboree Part 4
DYEAR=1900
DGENRE=Boogie-Woogie
TTITLE0=Etta James - 30 - Good Rockin' Daddy
TTITLE1=The Trenier - 32 - Bald Head
TTITLE2=Marilyn Monroe - 32 - I Wanna Be Loved By You
TTITLE3=The Big Bopper - 33 - Crazy Blues
TTITLE4=The Mills Brothers - 33 - Smack Dab In The Middle
TTITLE5=Doris Day - 34 - Steppin' Out
TTITLE6=Peggy Lee - 34 - Fever
TTITLE7=Louis Jordan - 34 - Rock Doc
TTITLE8=Peter Alexander and Catarina Valente - 35 - Eventuell
TTITLE9=Tommy Sands - 37 - Oop Shoop
TTITLE10=Bobby Rydell and Chybby Checker - 38 - Swinging Together
TTITLE11=Dale Hawkings - 40 - Little Pig
TTITLE12=Louis Prima - 41 - Whistle Stop
TTITLE13=Lavern Baker - 42 - Jim Dandy
TTITLE14=Moon Mulligan - 42 - Honolulu Rock-A-Roll-A
TTITLE15=Fairburn - 42 - Telephone Baby
TTITLE16=Alan Dale - 42 - Your Just Right
TTITLE17=Charlie Gracie - 43 - Hard Like A Rock
TTITLE18=Alan Dale - 43 - I Cry More
TTITLE19=Clint Miller - 46 - Teenage Dance
TTITLE20=Pee Wee King - 47 - Hoot Scoot
TTITLE21=Ella Mae Morse - 47 - Oakie Boogie
TTITLE22=The King Brothers - 47 - Mais Oui
TTITLE23=The Demensions - 48 - Nursery Rhyme Rock
TTITLE24=John Barry - 49 - Three Little Fishes
TTITLE25=Camille Howard - 50 - Miraculous Boogie Woogie
TTITLE26=Mel Robbins - 51 - Save It
TTITLE27=Freddie Fingers Lee - 52 - One-Eyed Boogie Boy
TTITLE28=Rock Island Line - 52 - Choo Choo Ch' Boogie
TTITLE29=Pat Flowers - 57 - Rock Sock The Boogie
EXTD=
EXTT0=30
EXTT1=32
EXTT2=32
EXTT3=33
EXTT4=33
EXTT5=34
EXTT6=34
EXTT7=34
EXTT8=35
EXTT9=37
EXTT10=38
EXTT11=40
EXTT12=41
EXTT13=42
EXTT14=42
EXTT15=42
EXTT16=42
EXTT17=43
EXTT18=43
EXTT19=46
EXTT20=47
EXTT21=47
EXTT22=47
EXTT23=48
EXTT24=49
EXTT25=50
EXTT26=51
EXTT27=52
EXTT28=52
EXTT29=57
PLAYORDER=
